<svg width="824" height="824" viewBox="0 0 824 824" fill="none" xmlns="http://www.w3.org/2000/svg">
<mask id="mask0_2_43" style="mask-type:alpha" maskUnits="userSpaceOnUse" x="0" y="0" width="824" height="824">
<rect width="824" height="824" rx="184" fill="white"/>
</mask>
<g mask="url(#mask0_2_43)">
<rect width="274.667" height="824" fill="#FBF306"/>
<rect x="274.67" width="274.667" height="824" fill="#FE9B00"/>
<rect x="549.34" width="274.667" height="824" fill="#E64421"/>
</g>
<rect x="227" y="85.5" width="370" height="657" rx="26.5" stroke="#1442AF" stroke-width="11"/>
<line x1="221.5" y1="631.948" x2="602.5" y2="631.948" stroke="#1442AF" stroke-width="11"/>
<line x1="221.5" y1="392.754" x2="602.5" y2="392.754" stroke="#1442AF" stroke-width="11"/>
<line x1="221.5" y1="158.252" x2="602.5" y2="158.252" stroke="#1442AF" stroke-width="11"/>
<path d="M452.395 687.376C452.395 709.686 434.309 727.771 412 727.771C389.691 727.771 371.605 709.686 371.605 687.376C371.605 665.066 389.691 646.98 412 646.98C434.309 646.98 452.395 665.066 452.395 687.376Z" stroke="#1442AF" stroke-width="11"/>
<rect x="362" y="574.298" width="100" height="41.2607" rx="20.6304" stroke="#1442AF" stroke-width="11"/>
<rect x="243" y="464.055" width="100" height="41.2607" rx="20.6304" stroke="#1442AF" stroke-width="11"/>
<rect x="481" y="464.055" width="100" height="41.2607" rx="20.6304" stroke="#1442AF" stroke-width="11"/>
<rect x="362" y="464.055" width="100" height="41.2607" rx="20.6304" stroke="#1442AF" stroke-width="11"/>
<rect x="310.97" y="174.972" width="202.06" height="202.063" stroke="#1442AF" stroke-width="11"/>
</svg>
